<?xml version="1.0" encoding="UTF-8"?>
<svg version="1.1" xmlns="http://www.w3.org/2000/svg" width="1000" height="500">
<path d="M0 0 C11.39150922 10.72157967 21.53286123 22.13406805 30.9375 34.625 C31.44925781 35.2962793 31.96101563 35.96755859 32.48828125 36.65917969 C52.36662345 62.83716683 73.21090611 96.4427153 70.9375 130.625 C68.59605878 143.19303009 60.84545541 150.8462182 50.62890625 157.9921875 C35.8098029 167.98083513 21.24506396 173.7781783 3.25 174.0625 C1.97878296 174.09609619 1.97878296 174.09609619 0.68188477 174.13037109 C-15.61168229 174.07291953 -31.2970869 168.11604327 -46.46337891 162.75854492 C-69.34334548 154.71691683 -87.7707208 153.82003621 -111.44973755 159.20480347 C-116.0545518 160.25080539 -120.66870099 161.25439115 -125.28125 162.265625 C-126.6589431 162.56943336 -126.6589431 162.56943336 -128.06446838 162.87937927 C-141.01262001 165.7288912 -154.00854204 168.30490402 -167.0625 170.625 C-167.86655273 170.77050293 -168.67060547 170.91600586 -169.49902344 171.06591797 C-188.76693451 174.41048621 -213.28626927 175.2387315 -232.0625 169.625 C-232.71524902 169.43164062 -233.36799805 169.23828125 -234.04052734 169.0390625 C-246.83609685 165.11779079 -260.30251822 158.8086881 -267.0625 146.625 C-273.28683901 133.58352778 -269.20088898 117.1333607 -264.7890625 104.18359375 C-257.02005555 82.89234088 -245.07575232 63.34686352 -231.0625 45.625 C-230.43214844 44.81417969 -229.80179687 44.00335938 -229.15234375 43.16796875 C-227.15327716 40.6270607 -225.11438717 38.12343096 -223.0625 35.625 C-222.28390625 34.65949219 -221.5053125 33.69398438 -220.703125 32.69921875 C-214.081698 24.64001736 -206.8514523 17.19975603 -199.5 9.8125 C-199.01739716 9.32472076 -198.53479431 8.83694153 -198.03756714 8.3343811 C-191.39491476 1.63562976 -184.47594532 -4.53626687 -177.0625 -10.375 C-176.331521 -10.95999268 -175.60054199 -11.54498535 -174.84741211 -12.14770508 C-155.09824243 -27.88073214 -131.4727845 -43.28868807 -106.0625 -47.375 C-105.33417969 -47.49746094 -104.60585938 -47.61992187 -103.85546875 -47.74609375 C-63.4224478 -53.17739507 -27.83772945 -25.86601372 0 0 Z " fill="#000000" transform="translate(511.0625,307.375)"/>
<path d="M0 0 C24.73888272 18.11678105 38.68072083 45.44740997 43.62890625 75.35546875 C47.28091145 101.38081109 43.92682786 127.60975821 29.125 149.8125 C20.1360354 161.7011306 8.38063603 169.54477303 -6.4609375 171.71875 C-22.49433129 173.4947567 -37.66895483 167.91544224 -50.3125 158.125 C-51.89478696 156.77281686 -53.45790755 155.39784911 -55 154 C-55.75796875 153.32324219 -56.5159375 152.64648438 -57.296875 151.94921875 C-72.59911474 137.51762369 -81.38537006 117.94946779 -87 98 C-87.34160156 96.78699219 -87.68320312 95.57398438 -88.03515625 94.32421875 C-92.10314312 76.70888957 -92.27093932 55.35811344 -87 38 C-86.64808594 36.81921875 -86.29617188 35.6384375 -85.93359375 34.421875 C-80.70292166 18.47091458 -71.68734168 4.05400439 -56.8984375 -4.5625 C-38.16454445 -13.85370302 -17.26117228 -11.66098858 0 0 Z " fill="#000000" transform="translate(370,35)"/>
<path d="M0 0 C0.78632812 0.00563965 1.57265625 0.0112793 2.3828125 0.01708984 C15.26632565 0.28594001 25.72863745 5.58519895 35.1875 14.28125 C47.32914031 27.43469367 52.19699802 45.84017886 53.0625 63.3125 C53.10375 64.00085938 53.145 64.68921875 53.1875 65.3984375 C54.1973206 98.34383472 39.68016433 130.70243504 17.43994141 154.38598633 C3.49479732 168.75161855 -14.43577793 178.74115728 -34.7734375 179.4453125 C-47.61861843 178.99506904 -58.50762981 175.12859166 -67.9375 166.3125 C-68.53949219 165.76335937 -69.14148438 165.21421875 -69.76171875 164.6484375 C-85.60223642 148.48754981 -87.35423029 125.62463848 -87.14453125 104.3203125 C-86.45894187 72.56448521 -70.53926702 42.10652683 -47.9375 20.3125 C-34.73814849 8.13850957 -18.15933251 -0.13768991 0 0 Z " fill="#000000" transform="translate(530.9375,32.6875)"/>
<path d="M0 0 C13.41331178 -0.58959612 26.05190074 3.69515681 36.1953125 12.34375 C47.5010572 23.11787661 53.74700042 36.58611788 54.2109375 52.28125 C54.58932115 80.42293561 46.32189724 106.14953812 27.0078125 127.15625 C26.2964917 127.93911377 26.2964917 127.93911377 25.57080078 128.73779297 C11.17809408 144.41843763 -8.20644858 157.47432476 -30.0625 158.4375 C-31.91384677 158.47963545 -33.76547409 158.51081238 -35.6171875 158.53125 C-36.48794922 158.54526855 -37.35871094 158.55928711 -38.25585938 158.57373047 C-50.91995583 158.48054183 -62.611914 153.6363 -71.8046875 144.90625 C-86.1613214 129.5497791 -87.75769434 111.32171484 -87.16699219 91.26416016 C-85.9670328 69.92968663 -74.61983507 49.05943347 -60.9921875 33.15625 C-60.31542969 32.33382812 -59.63867188 31.51140625 -58.94140625 30.6640625 C-45.57394736 14.97501568 -26.30419543 3.44197952 -5.7421875 0.40625 C-3.82759067 0.27861021 -1.91297199 0.15003702 0 0 Z " fill="#000000" transform="translate(629.9921875,189.84375)"/>
<path d="M0 0 C3.88538714 2.78658976 7.4711527 5.77680089 11 9 C11.76699219 9.68578125 12.53398437 10.3715625 13.32421875 11.078125 C33.05548181 29.67303259 45.42670328 56.77734113 46.33422852 83.79345703 C46.63238995 101.75812959 42.06208894 118.54934197 29.3515625 131.8125 C17.46098334 142.87350387 4.30629146 145.59223548 -11.390625 145.3359375 C-31.47284109 144.50886189 -49.42995083 133.28426228 -63 119 C-63.56847656 118.48695313 -64.13695312 117.97390625 -64.72265625 117.4453125 C-84.13651322 99.4595126 -93.65417642 72.38698304 -94.9453125 46.54052734 C-95.31677357 29.28417079 -89.79471008 12.64845174 -78.03125 -0.12109375 C-55.55897373 -20.9079493 -23.67551742 -15.23604418 0 0 Z " fill="#000000" transform="translate(253,173)"/>
</svg>
